<svg xmlns="http://www.w3.org/2000/svg" viewBox="0 0 64 64" role="img" aria-label="Partner Monogatari">
  <defs>
    <linearGradient id="g" x1="0" y1="0" x2="1" y2="1">
      <stop offset="0%" stop-color="#a78bfa" />
      <stop offset="50%" stop-color="#e879f9" />
      <stop offset="100%" stop-color="#22d3ee" />
    </linearGradient>
  </defs>
  <rect x="2" y="2" width="60" height="60" rx="16" fill="#0b1120" />
  <rect x="2" y="2" width="60" height="60" rx="16" fill="none" stroke="url(#g)" stroke-width="2.5" />
  <path d="M32 14c-6.6 0-12 5.4-12 12 0 3.2 1.3 6.1 3.3 8.2-1.4 4.4-4.6 6.6-6.6 7.6 3.9 1.1 8.2.5 11.2-1.4 1.3.3 2.7.5 4.1.5 6.6 0 12-5.4 12-12S38.6 14 32 14z"
        fill="url(#g)" opacity="0.92" />
  <circle cx="27" cy="25" r="2.3" fill="#0b1120" />
  <circle cx="37" cy="25" r="2.3" fill="#0b1120" />
  <path d="M28 30.5c1.3 1.2 2.7 1.8 4 1.8s2.7-.6 4-1.8" stroke="#0b1120" stroke-width="2" stroke-linecap="round" fill="none" />
</svg>
